HIERARCHY
ROOT Hips
{
	OFFSET -3.958830 18.904000 13.208200
	CHANNELS 6 Xposition Yposition Zposition Zrotation Yrotation Xrotation 
	JOINT LHipJoint
	{
		OFFSET 0.000000 0.000000 0.000000
		CHANNELS 3 Zrotation Yrotation Xrotation
		JOINT LeftUpLeg
		{
			OFFSET 1.800000 -1.400000 0.085000
			CHANNELS 3 Zrotation Yrotation Xrotation
			JOINT LeftLeg
			{
				OFFSET 2.215000 -6.000000 0.000000
				CHANNELS 3 Zrotation Yrotation Xrotation
				JOINT LeftFoot
				{
					OFFSET 2.500000 -6.900000 0.000000
					CHANNELS 3 Zrotation Yrotation Xrotation
					JOINT LeftToeBase
					{
						OFFSET 0.200000 -0.500000 1.950000
						CHANNELS 3 Zrotation Yrotation Xrotation
						End Site
						{
							OFFSET 0.000000 0.000000 0.000000
						}
					}
				}
			}
		}
	}
	JOINT RHipJoint
	{
		OFFSET 0.000000 0.000000 0.000000
		CHANNELS 3 Zrotation Yrotation Xrotation
		JOINT RightUpLeg
		{
			OFFSET -1.800000 -1.400000 0.085000
			CHANNELS 3 Zrotation Yrotation Xrotation
			JOINT RightLeg
			{
				OFFSET -2.215000 -6.000000 0.000000
				CHANNELS 3 Zrotation Yrotation Xrotation
				JOINT RightFoot
				{
					OFFSET -2.500000 -6.900000 0.000000
					CHANNELS 3 Zrotation Yrotation Xrotation
					JOINT RightToeBase
					{
						OFFSET -0.200000 -0.500000 1.950000
						CHANNELS 3 Zrotation Yrotation Xrotation
						End Site
						{
							OFFSET 0.000000 0.000000 0.000000
						}
					}
				}
			}
		}
	}
	JOINT LowerBack
	{
		OFFSET 0.000000 0.000000 0.000000
		CHANNELS 3 Zrotation Yrotation Xrotation
		JOINT Spine
		{
			OFFSET -0.087000 1.940000 -0.288900
			CHANNELS 3 Zrotation Yrotation Xrotation
			JOINT Spine1
			{
				OFFSET 0.000000 1.950000 0.060000
				CHANNELS 3 Zrotation Yrotation Xrotation
				JOINT Neck
				{
					OFFSET 0.000000 0.000000 0.000000
					CHANNELS 3 Zrotation Yrotation Xrotation
					JOINT Neck1
					{
						OFFSET 0.000000 1.600000 0.340000
						CHANNELS 3 Zrotation Yrotation Xrotation
						JOINT Head
						{
							OFFSET 0.000000 1.667000 -0.240000
							CHANNELS 3 Zrotation Yrotation Xrotation
							End Site
							{
								OFFSET 0.000000 0.000000 0.000000
							}
						}
					}
				}
				JOINT LeftShoulder
				{
					OFFSET 0.000000 0.000000 0.000000
					CHANNELS 3 Zrotation Yrotation Xrotation
					JOINT LeftArm
					{
						OFFSET 2.700000 1.550000 -0.730000
						CHANNELS 3 Zrotation Yrotation Xrotation
						JOINT LeftForeArm
						{
							OFFSET 5.450000 0.000000 0.000000
							CHANNELS 3 Zrotation Yrotation Xrotation
							JOINT LeftHand
							{
								OFFSET 3.450000 0.000000 0.000000
								CHANNELS 3 Zrotation Yrotation Xrotation
								JOINT LeftHandIndex1
								{
									OFFSET 0.750000 0.000000 0.000000
									CHANNELS 3 Zrotation Yrotation Xrotation
									End Site
									{
										OFFSET 0.000000 0.000000 0.000000
									}
								}
							}
						}
					}
				}
				JOINT RightShoulder
				{
					OFFSET 0.000000 0.000000 0.000000
					CHANNELS 3 Zrotation Yrotation Xrotation
					JOINT RightArm
					{
						OFFSET -2.700000 1.550000 -0.730000
						CHANNELS 3 Zrotation Yrotation Xrotation
						JOINT RightForeArm
						{
							OFFSET -5.450000 0.000000 0.000000
							CHANNELS 3 Zrotation Yrotation Xrotation
							JOINT RightHand
							{
								OFFSET -3.450000 0.000000 0.000000
								CHANNELS 3 Zrotation Yrotation Xrotation
								JOINT RightHandIndex1
								{
									OFFSET -0.750000 0.000000 0.000000
									CHANNELS 3 Zrotation Yrotation Xrotation
									End Site
									{
										OFFSET 0.000000 0.000000 0.000000
									}
								}
							}
						}
					}
				}
			}
		}
	}
}
MOTION
Frames: 14
Frame Time: 0.016667
-0.523200 16.841310 -2.657790 -0.488258 -5.872348 1.946415 -14.768762 13.071606 3.290302 8.175262 -1.744210 -10.599345 -10.847608 4.302923 1.618046 -0.932760 4.733783 3.238034 -0.250550 -0.613210 -0.483780 18.665776 -10.583030 2.720104 -1.176374 1.080130 -16.137751 2.148351 -3.657499 6.661093 -0.027413 -2.590125 3.690421 -0.127960 0.916750 0.222510 -4.617516 -2.192463 -7.550171 14.870538 -12.630058 24.717490 -16.805128 -8.713650 7.732589 1.880753 -8.686672 -15.233391 -18.664901 8.971303 22.254340 1.105050 1.904120 -16.906550 -9.137820 -21.768215 3.603567 2.621585 -15.334816 -6.082090 33.841164 -19.850608 -7.008540 -4.376975 2.472755 0.812860 0.335610 -0.261900 0.236680 6.035087 22.641216 13.990521 18.943214 -0.809112 -5.755999 86.958572 87.387901 65.705618 3.297345 2.610612 -0.702460 0.739350 0.645480 -0.124700 
-0.530090 16.864510 -2.659650 -0.739316 -6.059120 2.262458 -14.769409 13.042976 3.316151 8.500466 -1.735121 -10.263523 -10.744551 4.174553 0.840025 -0.914811 4.734770 3.234701 -0.244440 -0.618270 -0.468030 18.665797 -10.557405 2.741963 -1.024570 1.147052 -16.086804 2.554004 -3.688077 6.465980 -0.043790 -2.573935 3.689085 -0.141950 0.889710 0.220600 -4.615700 -2.172336 -7.599502 14.820792 -12.619512 25.018686 -16.674743 -8.849010 6.716119 1.981160 -8.743518 -15.081830 -18.909360 9.324050 22.766954 1.476910 2.180070 -17.390170 -9.270807 -21.403940 3.829963 3.131240 -14.981726 -5.459920 31.464310 -17.467457 -5.896211 -4.355743 2.466977 0.839150 0.306640 -0.243350 0.232500 6.022736 22.503492 13.254022 18.057779 -1.558215 -7.007188 92.695156 84.325315 69.206173 3.342615 2.921314 -0.698130 0.725900 0.637220 -0.133280 
-0.552010 16.884020 -2.645150 -0.983083 -5.290486 3.514081 -14.810141 12.954224 3.406140 9.099458 -1.897893 -10.234527 -11.060386 3.893844 -0.956135 -0.866398 4.792220 3.222098 -0.265740 -0.640880 -0.476610 18.648096 -10.398847 2.746761 -0.978640 1.318913 -16.258505 3.671553 -3.719489 5.802659 -0.039661 -2.562224 3.699156 -0.162390 0.893810 0.212840 -4.547735 -2.313598 -7.675707 14.831859 -12.609929 23.785209 -16.430213 -9.169949 5.688402 2.094903 -8.571280 -14.911045 -18.604688 9.774501 23.319029 1.545020 2.772490 -16.415370 -9.278508 -20.662415 4.225448 4.017632 -14.447787 -4.088747 26.289875 -13.543673 -4.094677 -4.363843 2.430035 0.833220 0.308790 -0.247270 0.230130 5.753041 22.001243 12.156952 16.584712 -3.718582 -9.053398 102.613305 78.631877 75.681735 2.956329 2.366418 -0.700240 0.717910 0.636450 -0.131280 
-0.576170 16.907050 -2.639590 -1.471315 -6.183219 4.826387 -14.874736 12.866076 3.609459 9.928353 -2.084913 -9.623195 -11.576720 3.475645 -3.781343 -0.768826 4.947187 3.181260 -0.301660 -0.693720 -0.481660 18.599705 -10.201281 2.760238 -0.365131 1.644618 -16.795854 4.194739 -3.690219 5.589804 -0.027897 -2.473819 3.739449 -0.214330 0.882750 0.212620 -4.384790 -2.531242 -7.841609 14.307988 -11.962411 23.387372 -15.455571 -8.735856 4.281826 2.475964 -8.403326 -15.271801 -18.490550 10.200142 24.364029 0.881610 3.724950 -15.574930 -9.282826 -19.841517 4.748289 4.821061 -13.465716 -2.580804 20.410261 -9.026010 -2.569947 -4.363750 2.353535 0.850770 0.298890 -0.237360 0.221730 5.068661 21.893688 11.748817 14.612036 -5.982831 -10.039970 111.133385 74.973761 83.748272 2.410631 1.407157 -0.699860 0.694800 0.638060 -0.137630 
-0.598710 16.920050 -2.613540 -2.176118 -6.144383 6.395795 -14.936225 12.776899 3.708151 10.846318 -2.274039 -9.919128 -11.862419 3.244407 -5.297908 -0.706658 5.050415 3.158309 -0.327410 -0.713330 -0.485720 18.573055 -9.964727 2.788110 0.191066 1.899624 -16.652646 5.117922 -3.590249 4.280937 -0.021100 -2.453633 3.767589 -0.230980 0.897930 0.195360 -4.272602 -2.801306 -7.911425 14.791822 -11.810269 21.249635 -15.109542 -8.718840 4.177559 2.828012 -8.351849 -15.340584 -18.446971 10.582824 24.906761 0.272140 4.494870 -14.209000 -9.052990 -18.674029 5.176625 4.690242 -12.891490 -1.141842 15.386202 -3.991499 -1.649203 -4.408018 2.240828 0.832660 0.313360 -0.244910 0.221690 4.088429 21.121797 11.304680 12.385438 -6.945196 -9.412852 119.144002 72.618521 92.505741 2.010902 0.524134 -0.707580 0.704570 0.631550 -0.132170 
-0.631250 16.932500 -2.598440 -2.838726 -6.454263 8.189503 -15.017787 12.716985 3.880584 11.659461 -2.517453 -10.111372 -11.910778 2.876280 -7.433414 -0.624122 5.168923 3.119599 -0.378780 -0.775320 -0.516490 18.518296 -9.695139 2.820412 0.916750 2.249780 -16.892696 6.103780 -3.538288 3.477351 0.000880 -2.403895 3.802276 -0.281010 0.909630 0.191530 -4.086860 -3.186415 -8.054006 14.538613 -11.280960 19.382281 -14.074283 -8.443803 3.309593 3.263885 -8.217492 -15.785762 -18.537170 11.193352 26.104523 0.198200 5.360810 -12.022770 -9.184865 -17.577460 5.735275 4.172187 -11.242742 -0.028412 11.083231 -0.234606 -1.206472 -4.443229 2.160678 0.827020 0.322360 -0.255310 0.211510 3.427306 20.586104 11.295818 10.075568 -7.647209 -7.849925 123.285846 70.778603 96.334785 1.903316 0.047956 -0.709350 0.683980 0.648280 -0.129750 
-0.671660 16.941340 -2.582660 -3.489550 -7.275179 9.459902 -15.090025 12.776484 3.933686 12.206688 -2.583980 -10.900672 -11.511394 2.807223 -7.685304 -0.606524 5.152457 3.111947 -0.417360 -0.831690 -0.532300 18.444324 -9.528789 2.914534 1.503591 2.383328 -16.199422 6.880238 -3.438701 1.875792 -0.013874 -2.420978 3.806492 -0.331320 0.908040 0.209360 -3.871199 -3.533221 -8.199094 13.474743 -10.193324 18.234758 -12.489995 -7.679870 2.544258 3.627636 -7.751826 -15.944118 -17.836372 11.424638 27.971199 -0.039260 6.098080 -10.881190 -9.342063 -16.470218 6.006745 3.421371 -9.500900 0.632025 7.658973 0.351318 -1.116357 -4.425414 2.133254 0.845650 0.323630 -0.245360 0.198230 2.915169 19.879354 11.275878 7.801634 -8.603055 -6.418854 128.719396 69.072520 102.269863 1.803981 -0.333542 -0.704550 0.657360 0.668100 -0.135550 
-0.719060 16.943590 -2.572340 -3.443825 -7.024149 10.308210 -15.158503 12.959709 3.907784 11.996043 -2.604407 -12.183310 -10.879350 2.901696 -6.652599 -0.628817 4.983157 3.149526 -0.464370 -0.897550 -0.547200 18.348270 -9.469068 2.993890 1.618272 2.416690 -15.978300 7.512024 -3.441371 1.310826 -0.006518 -2.416575 3.816433 -0.386590 0.895920 0.212320 -3.621108 -3.887017 -8.311077 11.322873 -9.251544 17.275023 -10.501462 -7.198283 2.070345 3.836853 -7.124550 -16.189547 -16.895187 11.202444 30.141067 -0.259320 6.390440 -9.414880 -9.231212 -15.583716 6.364653 2.430636 -7.287241 0.932137 5.558582 -0.179045 -1.076105 -4.390544 2.128502 0.859560 0.318130 -0.241610 0.174880 2.447508 19.158649 11.357959 6.380340 -9.596934 -5.308206 134.086493 67.739752 108.565688 1.755441 -0.582242 -0.702250 0.627950 0.688540 -0.145120 
-0.776790 16.950250 -2.545090 -3.120703 -7.482484 10.645261 -15.231355 13.166418 3.874399 11.446153 -2.505472 -12.509170 -10.216432 3.025063 -5.611725 -0.612891 4.782414 3.193855 -0.467150 -0.909840 -0.510330 18.232750 -9.501129 3.075070 1.584818 2.306610 -15.524324 7.875852 -3.481790 1.068831 -0.035917 -2.398445 3.818164 -0.434760 0.816840 0.214650 -3.324931 -4.101291 -8.453440 8.182018 -7.894193 16.878867 -8.301720 -6.370219 1.416375 4.072429 -6.144285 -16.506503 -15.393722 10.787785 33.358617 -1.166720 7.092610 -9.472330 -9.465512 -14.849613 6.747795 1.602829 -4.638738 0.904905 4.719461 -0.018303 -1.023835 -4.322824 2.135938 0.893610 0.267210 -0.188740 0.152960 2.319485 18.447803 11.555414 5.657715 -10.415698 -4.315851 140.001891 66.424758 115.787685 1.761482 -0.776906 -0.668680 0.575690 0.664730 -0.161810 
-0.830390 16.967270 -2.528020 -2.857294 -7.643970 10.350718 -15.307198 13.411716 3.779714 10.807362 -2.308745 -12.712453 -9.059756 3.206709 -4.010061 -0.636726 4.565425 3.247512 -0.480940 -0.936720 -0.486900 18.107743 -9.585215 3.152822 1.413890 2.109607 -14.701651 8.369477 -3.622969 1.088375 -0.067257 -2.433635 3.806777 -0.479060 0.762390 0.217240 -3.006694 -4.268991 -8.552166 4.884003 -6.630638 17.119713 -5.836969 -5.603654 1.148304 4.214208 -5.057987 -17.036574 -13.755494 10.502280 36.829222 -1.749420 7.669410 -9.363400 -9.569377 -14.620009 7.311757 0.280121 -2.116604 0.839728 4.520031 -0.225694 -0.991102 -4.275721 2.124960 0.934510 0.231500 -0.147810 0.129080 2.302361 17.975084 11.925039 5.622967 -11.567371 -3.785847 147.836196 65.212026 125.864900 1.754306 -0.924098 -0.653130 0.544890 0.661210 -0.181270 
-0.882370 16.986260 -2.499550 -2.185775 -9.194801 9.630749 -15.407754 13.636227 3.640051 9.464397 -1.950013 -11.829646 -7.562413 3.323592 -2.651296 -0.665943 4.363546 3.307887 -0.459200 -0.919230 -0.434450 17.970375 -9.704225 3.203012 0.586855 1.789579 -13.630730 9.136839 -3.814154 1.000947 -0.122004 -2.528932 3.767081 -0.488910 0.695620 0.220570 -2.622458 -4.315141 -8.560671 0.766584 -4.663000 17.141067 -3.131883 -4.315484 1.362055 4.289141 -4.096092 -17.225639 -12.149480 10.246063 40.093904 -3.078670 8.539890 -10.594080 -9.822500 -14.244078 7.717092 -0.834066 0.271194 0.764504 4.397207 -0.037064 -0.980493 -4.227045 2.116457 0.980160 0.191730 -0.094520 0.114070 2.666845 17.541351 12.028169 5.743794 -11.720412 -3.485792 152.857376 64.347909 132.538544 1.773584 -0.975392 -0.638830 0.527340 0.639170 -0.206310 
-0.941210 16.996330 -2.474820 -1.613002 -10.789407 8.818498 -15.497078 13.833627 3.453275 8.253068 -1.558672 -11.254452 -6.005869 3.518651 -0.498061 -0.700579 4.160146 3.360983 -0.435630 -0.896250 -0.384890 17.855260 -9.848744 3.228043 -0.006798 1.493631 -12.583195 9.481307 -4.005015 1.297966 -0.164378 -2.618855 3.724852 -0.491320 0.634520 0.220210 -2.280168 -4.267121 -8.460822 -3.165300 -2.469501 16.711528 -0.252273 -2.818704 1.800387 4.153140 -3.217942 -17.370284 -10.606837 9.591327 42.910018 -3.684850 8.625940 -11.536930 -9.907974 -14.140166 8.070504 -1.875312 1.691776 0.749200 3.982060 1.077168 -0.991934 -4.202388 2.104406 1.008600 0.155660 -0.052850 0.095720 3.290603 17.356164 12.218847 6.482816 -11.921367 -3.604109 158.542533 64.111933 140.842053 1.790170 -1.010832 -0.620870 0.509470 0.618380 -0.225660 
-0.991580 16.988080 -2.458660 -1.297798 -11.770376 8.141827 -15.559345 14.009662 3.205939 7.002959 -1.250416 -11.732010 -3.904942 3.692194 2.774875 -0.788426 3.933795 3.420329 -0.442360 -0.919670 -0.352670 17.777275 -9.996197 3.256913 -0.289827 1.280694 -11.722837 9.767714 -4.198905 1.609460 -0.183055 -2.728231 3.677002 -0.501700 0.605690 0.228680 -2.038846 -4.168335 -8.271637 -6.160919 -0.469139 15.968926 2.278961 -1.428315 2.852405 4.028135 -1.812845 -17.424343 -7.609867 8.307485 44.588968 -5.352360 9.054460 -11.582620 -9.590963 -14.432691 8.439695 -2.593497 2.051163 0.879322 2.437137 3.463460 -1.106934 -4.244894 2.064291 1.029120 0.155260 -0.041490 0.071840 3.261243 16.978675 12.401161 8.668305 -11.846724 -4.338226 163.538787 64.557283 148.125773 1.772266 -1.027084 -0.628770 0.492570 0.623990 -0.255040 
-1.022610 16.996270 -2.456600 -1.522092 -12.821047 6.398356 -15.598834 14.285109 2.935454 5.956273 -0.818023 -12.109485 -1.039829 3.849450 7.334984 -0.836438 3.765825 3.447233 -0.409510 -0.903740 -0.289880 17.712099 -10.104697 3.318952 -0.612836 0.953143 -9.748637 10.514696 -4.475276 1.677641 -0.253612 -2.910108 3.606074 -0.508160 0.530410 0.231650 -1.846348 -4.276901 -8.118348 -8.007600 1.505862 17.287943 4.707861 0.140178 3.515473 4.096762 -0.935473 -17.879976 -6.023070 7.350593 46.891954 -7.048330 9.272950 -12.782660 -9.574750 -14.934097 8.897898 -3.532461 2.709105 0.938727 0.505777 5.818570 -1.277427 -4.218482 2.045578 1.073020 0.110330 0.003560 0.058180 3.205176 17.343761 12.956426 11.031690 -12.041187 -5.507844 172.387537 64.242206 160.391515 1.773060 -1.085386 -0.613680 0.465580 0.596150 -0.284620 
